<svg xmlns="http://www.w3.org/2000/svg" width="26" height="26"><path d="M25.5 25.1L25.1 25.5C24.4 26.2 23.3 26.2 22.6 25.5L18.9 21.8C18.5 21.4 18.4 20.9 18.4 20.4L16.6 18.6C12.5 21.7 6.7 21.4 3 17.7 -1 13.7-1 7.1 3 3 7.1-1 13.6-1 17.7 3 21.4 6.7 21.7 12.5 18.6 16.6L20.4 18.4C20.9 18.4 21.4 18.6 21.8 18.9L25.5 22.7C26.2 23.3 26.2 24.4 25.5 25.1ZM15.5 5.3C12.7 2.5 8.1 2.5 5.3 5.3 2.5 8.1 2.5 12.7 5.3 15.5 8.1 18.3 12.6 18.3 15.5 15.5 18.3 12.6 18.3 8.1 15.5 5.3ZM13.2 11.5L11.5 11.5 11.5 13.2C11.5 13.8 11 14.3 10.4 14.3L10.4 14.3C9.8 14.3 9.3 13.8 9.3 13.2L9.3 11.5 7.6 11.5C7 11.5 6.5 11 6.5 10.4L6.5 10.4C6.5 9.8 7 9.3 7.6 9.3L9.3 9.3 9.3 7.6C9.3 7 9.8 6.5 10.4 6.5L10.4 6.5C11 6.5 11.5 7 11.5 7.6L11.5 9.3 13.2 9.3C13.8 9.3 14.3 9.8 14.3 10.4L14.3 10.4C14.3 11 13.8 11.5 13.2 11.5Z" fill="rgb(255, 255, 255)"/></svg>
