<svg xmlns="http://www.w3.org/2000/svg" xmlns:xlink="http://www.w3.org/1999/xlink" width="19" height="13" viewBox="0 0 19 13"><defs><path id="yyx1a" d="M393.87 2188.95c-.04-.07-.3-.63-1.5-1.8-1.25-1.2-1.08-1.01.43-3.11.92-1.28 1.3-2.06 1.18-2.4-.11-.31-.8-.23-.8-.23l-2.24.01s-.17-.02-.3.06c-.12.07-.2.25-.2.25s-.35.99-.83 1.83c-1 1.78-1.4 1.87-1.57 1.76-.38-.26-.28-1.03-.28-1.58 0-1.73.25-2.44-.5-2.63-.24-.06-.42-.1-1.05-.1-.8-.02-1.48 0-1.87.2-.25.12-.45.41-.33.43.15.02.49.1.66.35.24.33.23 1.06.23 1.06s.13 2.03-.31 2.28c-.3.17-.72-.18-1.62-1.79-.46-.83-.8-1.74-.8-1.74s-.07-.17-.2-.26c-.14-.11-.34-.15-.34-.15l-2.14.02s-.32 0-.44.15c-.1.13 0 .4 0 .4s1.67 4.1 3.57 6.15c1.74 1.9 3.72 1.77 3.72 1.77h.9s.27-.03.4-.19c.13-.14.13-.4.13-.4s-.02-1.26.54-1.45c.55-.18 1.26 1.22 2 1.75.57.4 1 .32 1 .32l2-.03s1.05-.07.56-.93z"/></defs><g><g transform="translate(-377 -2179)"><use fill="#fff" xlink:href="#yyx1a"/></g></g></svg>
