<svg xmlns="http://www.w3.org/2000/svg" xmlns:xlink="http://www.w3.org/1999/xlink" width="12" height="18" viewBox="0 0 12 18"><defs><path id="kjmea" d="M474.34 2187.86a5.02 5.02 0 0 1-2.76-1.03c-.1-.09-.2-.16-.29-.26-.35-.35-.38-.75-.1-1.17.23-.35.63-.45 1.04-.24l.23.14a4.35 4.35 0 0 0 5.02.05c.14-.12.3-.22.49-.27.35-.1.68.04.87.37.22.37.22.74-.05 1.03-.41.44-.9.76-1.46.99-.52.21-1.1.32-1.66.39l.18.2 2.3 2.43c.27.28.32.62.18.94-.16.35-.51.59-.86.56a.82.82 0 0 1-.53-.29c-.58-.61-1.17-1.21-1.74-1.84-.17-.18-.25-.14-.4.01-.57.63-1.17 1.26-1.76 1.87-.27.28-.59.33-.9.17a.96.96 0 0 1-.52-.88.9.9 0 0 1 .28-.58l2.27-2.4.17-.19zm.63-2.77a3.47 3.47 0 0 1-3.34-3.55 3.46 3.46 0 0 1 3.38-3.54c1.87 0 3.37 1.6 3.36 3.59-.01 1.93-1.53 3.5-3.4 3.5zm1.68-3.55c0-.96-.73-1.73-1.65-1.73-.92 0-1.66.78-1.65 1.75 0 .96.74 1.72 1.66 1.72.91 0 1.64-.78 1.64-1.74z"/></defs><g><g transform="translate(-469 -2176)"><use fill="#fff" xlink:href="#kjmea"/></g></g></svg>
