<svg xmlns="http://www.w3.org/2000/svg" xmlns:xlink="http://www.w3.org/1999/xlink" width="18" height="14" viewBox="0 0 18 14"><defs><path id="ij4ja" d="M569.51 2184.33v1.87a5.95 5.95 0 0 1-5.75 4.8 5.88 5.88 0 0 1-5.76-6c0-3.31 2.58-6 5.76-6 1.56 0 2.99.65 4.02 1.71l-1.3 1.48a3.75 3.75 0 0 0-2.72-1.19 3.92 3.92 0 0 0-3.84 4c0 2.2 1.72 4 3.84 4a3.86 3.86 0 0 0 3.66-2.8h-3.28v-1.87zm3.49.98h-1.1v1.15h-.94v-1.15h-1.1v-.98h1.1v-1.15h.94v1.15h1.1z"/></defs><g><g transform="translate(-557 -2178)"><use fill="#fff" xlink:href="#ij4ja"/></g></g></svg>
