<svg xmlns="http://www.w3.org/2000/svg" xmlns:xlink="http://www.w3.org/1999/xlink" width="9" height="17" viewBox="0 0 9 17"><defs><path id="4avga" d="M659.74 2178h-1.68c-1.89 0-3.1 1.26-3.1 3.2v1.47h-1.7a.26.26 0 0 0-.26.27v2.14c0 .14.12.26.26.26h1.7v5.4c0 .14.11.26.26.26h2.2c.14 0 .26-.12.26-.27v-5.39h1.98c.14 0 .26-.12.26-.26v-2.14a.27.27 0 0 0-.26-.27h-1.98v-1.25c0-.6.15-.9.92-.9h1.14c.14 0 .26-.12.26-.27v-1.98a.26.26 0 0 0-.26-.27z"/></defs><g><g transform="translate(-652 -2176)"><use fill="#fff" xlink:href="#4avga"/></g></g></svg>
