<svg xmlns="http://www.w3.org/2000/svg" xmlns:xlink="http://www.w3.org/1999/xlink" width="26" height="32" viewBox="0 0 26 32"><defs><path id="xb01a" d="M694 805.16v23.77c0 .59-.47 1.07-1.04 1.07h-21.92c-.57 0-1.04-.48-1.04-1.07v-23.77c0-.59.47-1.07 1.04-1.07h2.63c.57 0 1.04.48 1.04 1.07 0 .58-.47 1.06-1.04 1.06h-1.6v21.65h19.86v-21.65h-5.58c-.57 0-1.04-.48-1.04-1.06v-2.03h-6.61v3.48h5.38c.57 0 1.04.48 1.04 1.07 0 .58-.47 1.06-1.04 1.06h-6.42c-.57 0-1.04-.48-1.04-1.06v-5.61c0-.59.47-1.07 1.04-1.07h8.68c.58 0 1.04.48 1.04 1.07v2.02h5.58c.57 0 1.04.48 1.04 1.07zm-7.22 10.2l-5.58 5.68a1.03 1.03 0 0 1-1.47 0l-2.5-2.59c-.41-.42-.41-1.1 0-1.51a1.02 1.02 0 0 1 1.47 0l1.77 1.84 4.85-4.93a1.02 1.02 0 0 1 1.47 0c.4.42.4 1.1 0 1.51z"/></defs><g><g transform="translate(-669 -799)"><use fill="#4b87d5" xlink:href="#xb01a"/></g></g></svg>
