<svg xmlns="http://www.w3.org/2000/svg" xmlns:xlink="http://www.w3.org/1999/xlink" width="31" height="30" viewBox="0 0 31 30"><defs><path id="roiea" d="M1259.27 802H1250c-.57 0-1.03.46-1.03 1.03v15.83l-2.28-2.27c-.4-.4-1.05-.4-1.45 0-.4.4-.4 1.05 0 1.46l4.03 4.03a1.03 1.03 0 0 0 1.45 0l4.04-4.03c.4-.4.4-1.06 0-1.46-.4-.4-1.06-.4-1.46 0l-2.27 2.27v-14.8h8.24a2.67 2.67 0 0 1 2.67 2.65v18.58c0 1.46-1.2 2.65-2.67 2.65h-18.55a2.66 2.66 0 0 1-2.66-2.65V806.7c0-1.46 1.2-2.65 2.66-2.65h2.41a1.03 1.03 0 0 0 0-2.06h-2.4a4.72 4.72 0 0 0-4.73 4.71v18.58c0 2.6 2.12 4.71 4.72 4.71h18.56c2.6 0 4.72-2.11 4.72-4.71V806.7c0-2.6-2.13-4.71-4.73-4.71z"/></defs><g><g transform="translate(-1235 -801)"><use fill="#4780c9" xlink:href="#roiea"/></g></g></svg>
