<svg xmlns="http://www.w3.org/2000/svg" xmlns:xlink="http://www.w3.org/1999/xlink" width="30" height="31" viewBox="0 0 30 31"><defs><path id="o2mca" d="M1461.74 810.77h-5.4v-3.87c0-1.91-.57-3.3-1.7-4.13-1.78-1.3-4.2-.57-4.3-.53l-.73.23v5.5c0 1.34-.72 2.52-2.16 3.53a1.04 1.04 0 0 0 1.2 1.7c2-1.4 3.05-3.2 3.05-5.23v-3.89c.52-.04 1.2 0 1.71.36.57.41.86 1.24.86 2.44v5.95h7.48c1.18 0 2.14.94 2.18 2.12l-1.55 9.74-.01.03c-.07.54-.27 2.2-2.8 2.2h-11.64a2.07 2.07 0 0 1-2.07-2.07v-9.63a3.2 3.2 0 0 0-3.2-3.2h-1.46a3.2 3.2 0 0 0-3.2 3.2v9.88a3.2 3.2 0 0 0 3.2 3.2 1.04 1.04 0 1 0 0-2.08c-.62 0-1.12-.5-1.12-1.12v-9.88c0-.62.5-1.12 1.12-1.12h1.46c.62 0 1.12.5 1.12 1.12v9.88a4.16 4.16 0 0 0 4.15 3.9h11.63a5.4 5.4 0 0 0 3.02-.82 4.31 4.31 0 0 0 1.84-3.18l1.56-9.8a4.26 4.26 0 0 0-4.24-4.43z"/></defs><g><g transform="translate(-1437 -800)"><use fill="#4b87d4" xlink:href="#o2mca"/></g></g></svg>
